<svg width="57" height="47" xmlns="http://www.w3.org/2000/svg"><path d="M37.545 30.859l-2.079 2.054-2.088-2.058-1.043-3.089-3.133-1.031.002-2.055-2.088.003-1.04 5.14 1.046 3.088-4.805 2.051-1.458-2.056 1.041-2.058V28.8h-3.127l-4.165 4.114-3.133-1.033v-4.114l-5.217-.813-3.979 1.973L0 27.803v-4.154l2.086-1.022 8.35-4.115 1.039 1.027 3.126-3.083v-2.057l4.172-4.114 2.086-4.12 3.132-5.14L29.202 0h2.085v2.052l4.173 4.113v4.115l6.257 6.176 6.258 4.114 3.13 1.024 1.04 3.083 4.174 2.064L54.23 28.8h-2.086l.004-2.061-3.13-1.028-5.216-5.146-4.172-2.051-4.171-6.176-2.087-2.057 1.046-3.083-3.13-3.087-2.087 2.061v4.114l-2.08 2.057 4.165 4.108-2.085 2.056 4.171 4.12v2.057l2.09 4.116h2.082l2.086-2.058-1.045-1.027-1.041-3.087h2.086l2.085 4.114 2.087 2.05-6.258 2.068.001-.001zM.007 46.819V36.08l2.281-1.124v11.861H.007v.002zm11.78 0h-2.28v-4.62c0-1.527-.528-1.983-1.47-1.983-.943 0-1.489.456-1.489 1.935v4.667h-2.28V38.28h2.28v.57c.397-.407 1.124-.75 2.033-.75 2.214 0 3.206 1.498 3.206 3.904v4.815zm9.341-8.54l-3.123 8.54H15.66l-3.124-8.54h2.512l1.272 3.954c.21.65.446 1.462.547 1.869.097-.422.33-1.203.543-1.87l1.274-3.952h2.445l-.001-.001zM25.84 47c-2.531 0-4.337-1.742-4.337-4.441 0-2.619 1.85-4.457 4.131-4.457 2.42 0 3.951 2.02 3.951 4.457 0 .325-.009.449-.035.716h-5.71c.158 1.116 1.1 1.61 2 1.61.513 0 1.173-.196 1.614-.755l1.751 1.26c-.94 1.269-2.446 1.61-3.365 1.61zm1.465-5.415c-.118-.823-.653-1.529-1.753-1.529-.86 0-1.528.666-1.677 1.53h3.43v-.001zm7.192 3.497c.855 0 1.368-.342 1.368-.754 0-.6-.922-.704-1.344-.782-1.708-.316-3.71-.631-3.71-2.797 0-1.615 1.686-2.644 3.62-2.644 1.09 0 2.344.454 3.204.99l-1.168 1.543c-.714-.354-1.55-.615-2.07-.615-.99 0-1.362.256-1.362.607 0 .6 1.247.71 1.898.862 1.586.37 3.17.809 3.17 2.732 0 1.783-1.883 2.777-3.738 2.777-1.373 0-2.727-.585-3.652-1.187l1.126-1.516c.82.418 1.695.784 2.658.784zm9.111-4.817c-1.319 0-2.256 1.09-2.203 2.4.05 1.221 1.125 2.249 2.364 2.165a2.13 2.13 0 0 0 1.689-1.003l1.83 1.312a4.553 4.553 0 0 1-4.286 1.822c-2.018-.257-3.657-1.897-3.884-3.887-.306-2.687 1.82-4.97 4.49-4.97a4.53 4.53 0 0 1 3.69 1.884l-1.832 1.321a2.138 2.138 0 0 0-1.858-1.044zM57 42.557c0 2.771-2.575 4.94-5.497 4.34-1.704-.35-3.085-1.702-3.44-3.38-.612-2.874 1.602-5.417 4.417-5.417 2.496 0 4.52 2 4.52 4.457zm-2.314 0c0-1.303-.987-2.361-2.336-2.29-1.022.055-1.882.87-2.04 1.866-.234 1.452.746 2.702 2.17 2.702 1.282 0 2.206-1.015 2.206-2.278z" fill-rule="evenodd"/></svg>