<?xml version="1.0" encoding="utf-8"?>
<!-- Generator: Adobe Illustrator 21.1.0, SVG Export Plug-In . SVG Version: 6.00 Build 0)  -->
<svg version="1.1" xmlns="http://www.w3.org/2000/svg" xmlns:xlink="http://www.w3.org/1999/xlink" x="0px" y="0px" width="250px"
	 height="110px" viewBox="0 0 250 110" style="enable-background:new 0 0 250 110;" xml:space="preserve">
<g id="guide" style="display:none;">
	<rect style="display:inline;fill:#00A651;" width="400" height="400"/>
</g>
<g id="icons">
	<g>
		<rect x="60" style="fill:none;" width="26" height="26"/>
		<g>
			<g id="spin">
				<g>
					<path style="fill:#030104;" d="M78.6,18.6L77,17c-1.1,1.1-2.5,1.7-4,1.7c-3.1,0-5.6-2.5-5.6-5.6H69l-2.8-3.2L63.5,13h1.6
						c0,4.3,3.5,7.9,7.9,7.9C75.1,20.9,77.1,20.1,78.6,18.6z"/>
					<path style="fill:#030104;" d="M79.8,16.2l2.8-3.2h-1.6c0-4.3-3.5-7.9-7.9-7.9c-2.1,0-4.1,0.8-5.6,2.3L69,9
						c1.1-1.1,2.5-1.7,4-1.7c3.1,0,5.6,2.5,5.6,5.6H77L79.8,16.2z"/>
				</g>
			</g>
		</g>
	</g>
	<g>
		<rect x="86" style="fill:none;" width="26" height="26"/>
	</g>
	<path style="fill:#FFFFFF;" d="M99,0c-7.2,0-13,5.8-13,13s5.8,13,13,13s13-5.8,13-13S106.2,0,99,0z M99,24c-6.1,0-11-4.9-11-11
		S92.9,2,99,2s11,4.9,11,11S105.1,24,99,24z"/>
	<g>
		<path style="fill:#FFFFFF;" d="M100.8,13.3c-1,0.5-1.1,0.9-1.1,2H98c0-1.8,0.3-2.4,2-3.3c0.8-0.4,1.1-0.8,1.1-1.5
			c0-0.8-0.7-1.3-2-1.3c-1.1,0-1.9,0.5-2.6,1.2l-1-1.2c0.9-0.9,2.1-1.5,3.7-1.5c2.1,0,3.6,1,3.6,2.8C102.7,12,102.1,12.6,100.8,13.3
			z M98.9,18.6c-0.6,0-1.1-0.5-1.1-1.1s0.5-1.1,1.1-1.1c0.6,0,1.1,0.5,1.1,1.1S99.5,18.6,98.9,18.6z"/>
	</g>
	<g>
		<g>
			<rect x="112" style="fill:none;" width="26" height="26"/>
		</g>
		<circle style="fill:#FFFFFF;" cx="125" cy="13" r="1.5"/>
		<circle style="fill:#FFFFFF;" cx="125" cy="20" r="1.5"/>
		<circle style="fill:#FFFFFF;" cx="125" cy="6" r="1.5"/>
	</g>
	<polygon style="fill:#FFFFFF;" points="48.2,21.3 45.3,20.3 39.6,16.4 33.8,10.7 33.8,6.8 29.9,2.9 29.9,1 28,1 23.2,2 20.3,6.8 
		18.3,10.7 14.5,14.5 14.5,16.4 11.6,19.3 10.6,18.4 2.9,22.2 1,23.2 1,27.1 3.1,28.1 6.8,26.3 11.7,27.1 11.7,29 11.7,30.9 
		14.5,31.9 18.3,28 21.2,28 21.2,30 20.3,31.9 21.6,33.8 26,31.9 25.1,29 26,24.2 28,24.2 28,26.1 30.9,27.1 31.8,30 33.7,31.9 
		35.7,30 41.4,28 39.5,26.1 37.6,22.2 35.7,22.2 36.6,25.1 37.6,26.1 35.7,28 33.7,28 31.7,24.2 31.7,22.2 27.9,18.4 29.9,16.4 
		26,12.6 28,10.7 28,6.8 29.9,4.9 32.8,7.8 31.8,10.7 33.7,12.6 37.6,18.4 41.4,20.3 46.3,25.1 49.2,26.1 49.1,28 51.1,28 53,26.1 
		49.1,24.2 	"/>
	<polygon style="fill:#001970;" points="48.2,61.3 45.3,60.3 39.6,56.4 33.8,50.7 33.8,46.8 29.9,42.9 29.9,41 28,41 23.2,42 
		20.3,46.8 18.3,50.7 14.5,54.5 14.5,56.4 11.6,59.3 10.6,58.4 2.9,62.2 1,63.2 1,67.1 3.1,68.1 6.8,66.3 11.7,67.1 11.7,69 
		11.7,70.9 14.5,71.9 18.3,68 21.2,68 21.2,70 20.3,71.9 21.6,73.8 26,71.9 25.1,69 26,64.2 28,64.2 28,66.1 30.9,67.1 31.8,70 
		33.7,71.9 35.7,70 41.4,68 39.5,66.1 37.6,62.2 35.7,62.2 36.6,65.1 37.6,66.1 35.7,68 33.7,68 31.7,64.2 31.7,62.2 27.9,58.4 
		29.9,56.4 26,52.6 28,50.7 28,46.8 29.9,44.9 32.8,47.8 31.8,50.7 33.7,52.6 37.6,58.4 41.4,60.3 46.3,65.1 49.2,66.1 49.1,68 
		51.1,68 53,66.1 49.1,64.2 	"/>
	<g>
		<rect x="60" y="26" style="fill:none;" width="26" height="26"/>
		<g>
			<g id="spin_2_">
				<g>
					<path style="fill:#001970;" d="M78.6,44.6L77,43c-1.1,1.1-2.5,1.7-4,1.7c-3.1,0-5.6-2.5-5.6-5.6H69l-2.8-3.2L63.5,39h1.6
						c0,4.3,3.5,7.9,7.9,7.9C75.1,46.9,77.1,46.1,78.6,44.6z"/>
					<path style="fill:#001970;" d="M79.8,42.2l2.8-3.2h-1.6c0-4.3-3.5-7.9-7.9-7.9c-2.1,0-4.1,0.8-5.6,2.3L69,35
						c1.1-1.1,2.5-1.7,4-1.7c3.1,0,5.6,2.5,5.6,5.6H77L79.8,42.2z"/>
				</g>
			</g>
		</g>
	</g>
	<g>
		<g>
			<rect x="86" y="26" style="fill:none;" width="26" height="26"/>
		</g>
		<path style="fill:#001970;" d="M99,26c-7.2,0-13,5.8-13,13s5.8,13,13,13s13-5.8,13-13S106.2,26,99,26z M99,50c-6.1,0-11-4.9-11-11
			s4.9-11,11-11s11,4.9,11,11S105.1,50,99,50z"/>
		<g>
			<path style="fill:#001970;" d="M100.8,39.3c-1,0.5-1.1,0.9-1.1,2H98c0-1.8,0.3-2.4,2-3.3c0.8-0.4,1.1-0.8,1.1-1.5
				c0-0.8-0.7-1.3-2-1.3c-1.1,0-1.9,0.5-2.6,1.2l-1-1.2c0.9-0.9,2.1-1.5,3.7-1.5c2.1,0,3.6,1,3.6,2.8
				C102.7,38,102.1,38.6,100.8,39.3z M98.9,44.6c-0.6,0-1.1-0.5-1.1-1.1s0.5-1.1,1.1-1.1c0.6,0,1.1,0.5,1.1,1.1S99.5,44.6,98.9,44.6
				z"/>
		</g>
	</g>
	<g>
		<g>
			<rect x="112" y="26" style="fill:none;" width="26" height="26"/>
		</g>
		<circle style="fill:#001970;" cx="125" cy="39" r="1.5"/>
		<circle style="fill:#001970;" cx="125" cy="46" r="1.5"/>
		<circle style="fill:#001970;" cx="125" cy="32" r="1.5"/>
	</g>
	<g>
		<g>
			<rect x="138" y="22" style="fill:none;" width="22" height="22"/>
		</g>
		<g>
			
				<rect x="151.9" y="27.1" transform="matrix(0.7071 0.7071 -0.7071 0.7071 64.9254 -100.6432)" style="fill:#001970;" width="4" height="2"/>
			<polygon style="fill:#001970;" points="145.2,39.6 141.9,40.1 142.4,36.8 151.1,28.1 153.9,30.9 			"/>
		</g>
	</g>
	<g>
		<g>
			<rect x="138" style="fill:none;" width="22" height="22"/>
		</g>
		<g>
			
				<rect x="151.9" y="5.1" transform="matrix(0.7071 0.7071 -0.7071 0.7071 49.369 -107.0868)" style="fill:#FFFFFF;" width="4" height="2"/>
			<polygon style="fill:#FFFFFF;" points="145.2,17.6 141.9,18.1 142.4,14.8 151.1,6.1 153.9,8.9 			"/>
		</g>
	</g>
	<g>
		<g>
			<rect x="138" y="44" style="fill:none;" width="22" height="22"/>
		</g>
		<g>
			
				<rect x="151.9" y="49.1" transform="matrix(0.7071 0.7071 -0.7071 0.7071 80.4817 -94.1995)" style="fill:#AFAFAF;" width="4" height="2"/>
			<polygon style="fill:#AFAFAF;" points="145.2,61.6 141.9,62.1 142.4,58.8 151.1,50.1 153.9,52.9 			"/>
		</g>
	</g>
	<g>
		<path style="fill:#FFFFFF;" d="M86.8,96c-1.5-0.3-4.3-0.6-4.3-2c0-0.8,0.8-1.4,3.1-1.4c1.2,0,3.1,0.6,4.7,1.4l2.6-3.5
			c-1.9-1.2-4.8-2.3-7.2-2.3c-4.4,0-8.2,2.4-8.2,6.1c0,5,4.5,5.7,8.4,6.4c1,0.2,3,0.4,3,1.8c0,0.9-1.2,1.7-3.1,1.7
			c-2.2,0-4.1-0.8-6-1.8l-2.5,3.5c2.1,1.4,5.1,2.7,8.2,2.7c4.2,0,8.4-2.3,8.4-6.4C93.9,97.8,90.3,96.8,86.8,96z"/>
		<polygon style="fill:#FFFFFF;" points="7.9,108.1 13.2,108.1 13.2,81 7.9,83.6 		"/>
		<path style="fill:#FFFFFF;" d="M27.4,88.2c-2,0-3.8,0.8-4.5,1.7v-1.4h-5.3v19.6h5.3V97.5c0-3.4,1.2-4.4,3.3-4.4
			c2.1,0,3.3,1,3.3,4.5v10.6h5.1v-11C34.5,91.6,32.4,88.2,27.4,88.2z"/>
		<path style="fill:#FFFFFF;" d="M47.2,97.6c-0.5,1.5-1,3.3-1.2,4.3c-0.2-0.9-0.8-2.8-1.2-4.3l-2.9-9.1h-5.7l7,19.6h5.3l7-19.6h-5.5
			L47.2,97.6z"/>
		<path style="fill:#FFFFFF;" d="M65.8,88.2c-5.1,0-9.3,4.2-9.3,10.2c0,6.2,4.1,10.2,9.8,10.2c2.1,0,5.5-0.8,7.6-3.7l-4-2.9
			c-1,1.3-2.5,1.7-3.6,1.7c-2,0-4.2-1.1-4.5-3.7h12.9c0.1-0.6,0.1-0.9,0.1-1.6C74.7,92.8,71.2,88.2,65.8,88.2z M61.8,96.3
			c0.3-2.1,1.8-3.5,3.8-3.5c2.5,0,3.7,1.6,4,3.5H61.8z"/>
		<path style="fill:#FFFFFF;" d="M106.3,93.2c1.8,0,3.3,1,4.2,2.4l4.1-3c-1.8-2.6-4.9-4.3-8.3-4.3c-5.6,0-10.2,4.6-10.2,10.2
			c0,5.6,4.6,10.2,10.2,10.2c3.4,0,6.4-1.7,8.3-4.3l-4.1-3c-0.9,1.4-2.4,2.3-4.2,2.3c-2.9,0-5-2.3-5-5.2
			C101.3,95.5,103.4,93.2,106.3,93.2z"/>
		<path style="fill:#FFFFFF;" d="M126.3,88.2c-5.6,0-10.2,4.6-10.2,10.2c0,5.6,4.6,10.2,10.2,10.2s10.2-4.5,10.2-10.2
			C136.5,92.8,132,88.2,126.3,88.2z M126.3,103.6c-2.9,0-5-2.3-5-5.2c0-2.9,2.1-5.3,5-5.3c2.9,0,5,2.4,5,5.3
			C131.3,101.3,129.2,103.6,126.3,103.6z"/>
	</g>
	<g>
		<g>
			<polygon style="fill:#FFFFFF;" points="180,10 180,19 166,19 166,10 165,10 165,20 181,20 181,10 			"/>
		</g>
		<polygon style="fill:#FFFFFF;" points="176.5,13.5 175.8,12.8 173.5,15.1 173.5,4 172.5,4 172.5,15.1 170.2,12.8 169.5,13.5 
			173,17 173,17 173,17 		"/>
		<rect x="160" style="fill:none;" width="26" height="26"/>
	</g>
	<g>
		<g>
			<polygon style="fill:#001970;" points="180,36 180,45 166,45 166,36 165,36 165,46 181,46 181,36 			"/>
		</g>
		<polygon style="fill:#001970;" points="176.5,39.5 175.8,38.8 173.5,41.1 173.5,30 172.5,30 172.5,41.1 170.2,38.8 169.5,39.5 
			173,43 173,43 173,43 		"/>
		<rect x="160" y="26" style="fill:none;" width="26" height="26"/>
	</g>
	<g>
		<polygon style="fill:#FFFFFF;" points="167.5,96.5 166.8,95.8 160.5,102.1 160.5,69 159.5,69 159.5,102.1 153.2,95.8 152.5,96.5 
			160,104 160,104 160,104 		"/>
		<rect x="150" y="66" style="fill:none;" width="20" height="40"/>
	</g>
	<g>
		<polygon style="fill:#001970;" points="187.5,96.5 186.8,95.8 180.5,102.1 180.5,69 179.5,69 179.5,102.1 173.2,95.8 172.5,96.5 
			180,104 180,104 180,104 		"/>
		<rect x="170" y="66" style="fill:none;" width="20" height="40"/>
	</g>
	<g>
		<rect x="190" style="fill:none;" width="48" height="40"/>
		<g>
			<polygon style="fill:#FFFFFF;" points="191,39.3 192.8,39.3 192.8,29.6 191,30.6 			"/>
			<polygon style="fill:#FFFFFF;" points="200.3,23.7 200.3,25.4 200.3,27.1 202.8,28 206.2,24.6 208.6,24.6 208.6,26.3 207.8,28 
				209,29.6 212.9,28 212.1,25.4 212.9,21.2 214.6,21.2 214.6,22.9 217.1,23.7 218,26.3 219.6,28 221.3,26.3 226.4,24.6 224.7,22.9 
				223,19.5 221.3,19.5 222.2,22 223,22.9 221.3,24.6 219.6,24.6 217.9,21.2 217.9,19.5 214.6,16.2 216.2,14.5 212.9,11.1 
				214.6,9.4 214.6,6.1 216.3,4.4 218.8,6.9 217.9,9.4 219.6,11.1 223,16.2 226.4,17.8 230.6,22.1 233.1,22.9 233.1,24.6 
				234.8,24.6 236.4,22.9 233.1,21.2 232.2,18.7 229.7,17.8 224.6,14.5 219.6,9.4 219.6,6 216.3,2.7 216.3,1 214.6,1 210.4,1.8 
				207.9,6 206.2,9.4 202.9,12.8 202.9,14.5 200.3,17 199.5,16.2 192.7,19.5 191,20.4 191,23.8 192.9,24.7 196.1,23.1 			"/>
			<path style="fill:#FFFFFF;" d="M197.9,32.2c-0.7,0-1.2,0.3-1.7,0.6v-0.5h-1.8v7h1.8v-3.8c0-1.2,0.5-1.6,1.3-1.6
				c0.8,0,1.3,0.4,1.3,1.6v3.7h1.8v-3.9C200.5,33.4,199.7,32.2,197.9,32.2z"/>
			<path style="fill:#FFFFFF;" d="M205.1,35.6c-0.2,0.5-0.4,1.2-0.4,1.5c-0.1-0.3-0.3-1-0.4-1.5l-1-3.2h-2l2.5,7h1.9l2.5-7h-2
				L205.1,35.6z"/>
			<path style="fill:#FFFFFF;" d="M211.7,32.2c-1.8,0-3.3,1.5-3.3,3.7c0,2.2,1.5,3.6,3.5,3.6c0.7,0,2-0.3,2.7-1.3l-1.4-1
				c-0.4,0.5-0.9,0.6-1.3,0.6c-0.7,0-1.5-0.4-1.6-1.3h4.6c0-0.2,0-0.3,0-0.6C214.9,33.8,213.7,32.2,211.7,32.2z M210.3,35.1
				c0.1-0.8,0.7-1.3,1.4-1.3c0.9,0,1.3,0.6,1.4,1.3H210.3z"/>
			<path style="fill:#FFFFFF;" d="M219.2,35c-0.5-0.1-1.5-0.2-1.5-0.7c0-0.3,0.3-0.5,1.1-0.5c0.4,0,1.1,0.2,1.7,0.5l0.9-1.3
				c-0.7-0.4-1.7-0.8-2.6-0.8c-1.6,0-2.9,0.8-2.9,2.2c0,1.8,1.6,2,3,2.3c0.3,0.1,1.1,0.1,1.1,0.6c0,0.3-0.4,0.6-1.1,0.6
				c-0.8,0-1.5-0.3-2.1-0.6l-0.9,1.2c0.7,0.5,1.8,1,2.9,1c1.5,0,3-0.8,3-2.3C221.8,35.7,220.5,35.3,219.2,35z"/>
			<path style="fill:#FFFFFF;" d="M226.2,34c0.7,0,1.2,0.3,1.5,0.9l1.5-1.1c-0.7-0.9-1.7-1.5-3-1.5c-2,0-3.6,1.6-3.6,3.7
				c0,2,1.6,3.6,3.6,3.6c1.2,0,2.3-0.6,3-1.5l-1.5-1.1c-0.3,0.5-0.8,0.8-1.5,0.8c-1,0-1.8-0.8-1.8-1.9C224.4,34.8,225.2,34,226.2,34
				z"/>
			<path style="fill:#FFFFFF;" d="M233.4,32.2c-2,0-3.6,1.6-3.6,3.7c0,2,1.6,3.6,3.6,3.6c2,0,3.6-1.6,3.6-3.6
				C237,33.9,235.4,32.2,233.4,32.2z M233.4,37.7c-1,0-1.8-0.8-1.8-1.9c0-1,0.7-1.9,1.8-1.9c1,0,1.8,0.8,1.8,1.9
				C235.1,36.9,234.4,37.7,233.4,37.7z"/>
		</g>
	</g>
	<g>
		<rect x="190" y="40" style="fill:none;" width="48" height="40"/>
		<g>
			<polygon style="fill:#001970;" points="191,79.3 192.8,79.3 192.8,69.6 191,70.6 			"/>
			<polygon style="fill:#001970;" points="200.3,63.7 200.3,65.4 200.3,67.1 202.8,68 206.2,64.6 208.6,64.6 208.6,66.3 207.8,68 
				209,69.6 212.9,68 212.1,65.4 212.9,61.2 214.6,61.2 214.6,62.9 217.1,63.7 218,66.3 219.6,68 221.3,66.3 226.4,64.6 224.7,62.9 
				223,59.5 221.3,59.5 222.2,62 223,62.9 221.3,64.6 219.6,64.6 217.9,61.2 217.9,59.5 214.6,56.2 216.2,54.5 212.9,51.1 
				214.6,49.4 214.6,46.1 216.3,44.4 218.8,46.9 217.9,49.4 219.6,51.1 223,56.2 226.4,57.8 230.6,62.1 233.1,62.9 233.1,64.6 
				234.8,64.6 236.4,62.9 233.1,61.2 232.2,58.7 229.7,57.8 224.6,54.5 219.6,49.4 219.6,46 216.3,42.7 216.3,41 214.6,41 
				210.4,41.8 207.9,46 206.2,49.4 202.9,52.8 202.9,54.5 200.3,57 199.5,56.2 192.7,59.5 191,60.4 191,63.8 192.9,64.7 196.1,63.1 
							"/>
			<path style="fill:#001970;" d="M197.9,72.2c-0.7,0-1.2,0.3-1.7,0.6v-0.5h-1.8v7h1.8v-3.8c0-1.2,0.5-1.6,1.3-1.6
				c0.8,0,1.3,0.4,1.3,1.6v3.7h1.8v-3.9C200.5,73.4,199.7,72.2,197.9,72.2z"/>
			<path style="fill:#001970;" d="M205.1,75.6c-0.2,0.5-0.4,1.2-0.4,1.5c-0.1-0.3-0.3-1-0.4-1.5l-1-3.2h-2l2.5,7h1.9l2.5-7h-2
				L205.1,75.6z"/>
			<path style="fill:#001970;" d="M211.7,72.2c-1.8,0-3.3,1.5-3.3,3.7c0,2.2,1.5,3.6,3.5,3.6c0.7,0,2-0.3,2.7-1.3l-1.4-1
				c-0.4,0.5-0.9,0.6-1.3,0.6c-0.7,0-1.5-0.4-1.6-1.3h4.6c0-0.2,0-0.3,0-0.6C214.9,73.8,213.7,72.2,211.7,72.2z M210.3,75.1
				c0.1-0.8,0.7-1.3,1.4-1.3c0.9,0,1.3,0.6,1.4,1.3H210.3z"/>
			<path style="fill:#001970;" d="M219.2,75c-0.5-0.1-1.5-0.2-1.5-0.7c0-0.3,0.3-0.5,1.1-0.5c0.4,0,1.1,0.2,1.7,0.5l0.9-1.3
				c-0.7-0.4-1.7-0.8-2.6-0.8c-1.6,0-2.9,0.8-2.9,2.2c0,1.8,1.6,2,3,2.3c0.3,0.1,1.1,0.1,1.1,0.6c0,0.3-0.4,0.6-1.1,0.6
				c-0.8,0-1.5-0.3-2.1-0.6l-0.9,1.2c0.7,0.5,1.8,1,2.9,1c1.5,0,3-0.8,3-2.3C221.8,75.7,220.5,75.3,219.2,75z"/>
			<path style="fill:#001970;" d="M226.2,74c0.7,0,1.2,0.3,1.5,0.9l1.5-1.1c-0.7-0.9-1.7-1.5-3-1.5c-2,0-3.6,1.6-3.6,3.7
				c0,2,1.6,3.6,3.6,3.6c1.2,0,2.3-0.6,3-1.5l-1.5-1.1c-0.3,0.5-0.8,0.8-1.5,0.8c-1,0-1.8-0.8-1.8-1.9C224.4,74.8,225.2,74,226.2,74
				z"/>
			<path style="fill:#001970;" d="M233.4,72.2c-2,0-3.6,1.6-3.6,3.7c0,2,1.6,3.6,3.6,3.6c2,0,3.6-1.6,3.6-3.6
				C237,73.9,235.4,72.2,233.4,72.2z M233.4,77.7c-1,0-1.8-0.8-1.8-1.9c0-1,0.7-1.9,1.8-1.9c1,0,1.8,0.8,1.8,1.9
				C235.1,76.9,234.4,77.7,233.4,77.7z"/>
		</g>
	</g>
</g>
</svg>
