<?xml version="1.0" encoding="utf-8"?>
<!-- Generator: Adobe Illustrator 21.1.0, SVG Export Plug-In . SVG Version: 6.00 Build 0)  -->
<svg version="1.1" id="Layer_1" xmlns="http://www.w3.org/2000/svg" xmlns:xlink="http://www.w3.org/1999/xlink" x="0px" y="0px"
	 width="26px" height="26px" viewBox="0 0 26 26" style="enable-background:new 0 0 26 26;" xml:space="preserve">
<path style="fill-rule:evenodd;clip-rule:evenodd;" d="M13.7,13.6h2.1c0.1-0.8,0.2-1.6,0.3-2.5h-2.5c0-0.3,0-0.7,0-1
	c0-0.3,0-0.7,0-1c0.1-0.5,0.3-0.7,0.8-0.8c0.5,0,1,0,1.5,0c0.1,0,0.1,0,0.2,0V6.1c-1-0.1-1.9-0.2-2.9,0c-0.8,0.2-1.5,0.7-1.9,1.5
	c-0.3,0.5-0.4,1.1-0.4,1.7c0,0.6,0,1.2,0,1.8H9v2.5h2.1V20h2.6V13.6z"/>
</svg>
