<?xml version="1.0" encoding="utf-8"?>
<!-- Generator: Adobe Illustrator 21.1.0, SVG Export Plug-In . SVG Version: 6.00 Build 0)  -->
<svg version="1.1" id="Layer_1" xmlns="http://www.w3.org/2000/svg" xmlns:xlink="http://www.w3.org/1999/xlink" x="0px" y="0px"
	 width="26px" height="26px" viewBox="0 0 26 26" style="enable-background:new 0 0 26 26;" xml:space="preserve">
<g>
	<path d="M13,0C5.8,0,0,5.8,0,13s5.8,13,13,13s13-5.8,13-13S20.2,0,13,0z M13,24C6.9,24,2,19.1,2,13S6.9,2,13,2s11,4.9,11,11
		S19.1,24,13,24z"/>
	<g>
		<path d="M14.8,13.3c-1,0.5-1.1,0.9-1.1,2H12c0-1.8,0.3-2.4,2-3.3c0.8-0.4,1.1-0.8,1.1-1.5c0-0.8-0.7-1.3-2-1.3
			c-1.1,0-1.9,0.5-2.6,1.2l-1-1.2c0.9-0.9,2.1-1.5,3.7-1.5c2.1,0,3.6,1,3.6,2.8C16.7,12,16.1,12.6,14.8,13.3z M12.9,18.6
			c-0.6,0-1.1-0.5-1.1-1.1s0.5-1.1,1.1-1.1c0.6,0,1.1,0.5,1.1,1.1S13.5,18.6,12.9,18.6z"/>
	</g>
</g>
</svg>
