<?xml version="1.0" encoding="utf-8"?>
<!-- Generator: Adobe Illustrator 21.1.0, SVG Export Plug-In . SVG Version: 6.00 Build 0)  -->
<svg version="1.1" id="Layer_1" xmlns="http://www.w3.org/2000/svg" xmlns:xlink="http://www.w3.org/1999/xlink" x="0px" y="0px"
	 width="48px" height="40px" viewBox="0 0 48 40" style="enable-background:new 0 0 48 40;" xml:space="preserve">
<path d="M1,30.6l1.8-0.9v9.7H1V30.6z M10.3,23.7v1.7l0,1.7l2.5,0.8l3.4-3.4h2.4v1.7L17.8,28l1.2,1.7l3.9-1.7l-0.8-2.5l0.8-4.2l1.7,0
	l0,1.7l2.5,0.8l0.8,2.5l1.7,1.7l1.7-1.7l5-1.7l-1.7-1.7L33,19.5h-1.7l0.8,2.6l0.8,0.9l-1.7,1.7h-1.7l-1.7-3.4v-1.7l-3.3-3.4l1.7-1.7
	l-3.3-3.4l1.7-1.7V6.1l1.7-1.7l2.5,2.5l-0.8,2.5l1.7,1.7l3.4,5.1l3.4,1.7l4.2,4.2l2.5,0.8l0,1.7h1.7l1.7-1.7l-3.4-1.7l-0.8-2.5
	l-2.5-0.8l-5.1-3.4l-5.1-5.1V6l-3.3-3.4V1h-1.7l-4.2,0.8L17.9,6l-1.6,3.4l-3.3,3.4v1.7L10.3,17l-0.9-0.8l-6.8,3.4L1,20.4v3.4
	l1.9,0.9l3.2-1.6L10.3,23.7z M7.9,32.2c-0.7,0-1.2,0.3-1.7,0.6v-0.5H4.4v7h1.8v-3.8c0-1.2,0.5-1.6,1.3-1.6c0.8,0,1.3,0.4,1.3,1.6
	v3.7h1.8v-3.9C10.5,33.4,9.7,32.2,7.9,32.2z M15.1,35.6c-0.2,0.5-0.4,1.2-0.4,1.5c-0.1-0.3-0.3-1-0.4-1.5l-1-3.2h-2l2.5,7h1.9l2.5-7
	h-2L15.1,35.6z M24.9,35.8c0,0.3,0,0.4,0,0.6h-4.6c0.1,1,0.9,1.3,1.6,1.3c0.4,0,0.9-0.1,1.3-0.6l1.4,1c-0.8,1-2,1.3-2.7,1.3
	c-2,0-3.5-1.4-3.5-3.6c0-2.1,1.5-3.7,3.3-3.7C23.7,32.2,24.9,33.8,24.9,35.8z M23.1,35.1c-0.1-0.7-0.5-1.3-1.4-1.3
	c-0.7,0-1.2,0.5-1.4,1.3H23.1z M29.2,35c-0.5-0.1-1.5-0.2-1.5-0.7c0-0.3,0.3-0.5,1.1-0.5c0.4,0,1.1,0.2,1.7,0.5l0.9-1.3
	c-0.7-0.4-1.7-0.8-2.6-0.8c-1.6,0-2.9,0.8-2.9,2.2c0,1.8,1.6,2,3,2.3c0.3,0.1,1.1,0.1,1.1,0.6c0,0.3-0.4,0.6-1.1,0.6
	c-0.8,0-1.5-0.3-2.1-0.6l-0.9,1.2c0.7,0.5,1.8,1,2.9,1c1.5,0,3-0.8,3-2.3C31.8,35.7,30.5,35.3,29.2,35z M36.2,34
	c0.7,0,1.2,0.3,1.5,0.9l1.5-1.1c-0.7-0.9-1.7-1.5-3-1.5c-2,0-3.6,1.6-3.6,3.7c0,2,1.6,3.6,3.6,3.6c1.2,0,2.3-0.6,3-1.5l-1.5-1.1
	c-0.3,0.5-0.8,0.8-1.5,0.8c-1,0-1.8-0.8-1.8-1.9C34.4,34.8,35.2,34,36.2,34z M47,35.9c0,2-1.6,3.6-3.6,3.6c-2,0-3.6-1.6-3.6-3.6
	c0-2,1.6-3.7,3.6-3.7C45.4,32.2,47,33.9,47,35.9z M45.1,35.9c0-1-0.7-1.9-1.8-1.9c-1,0-1.8,0.8-1.8,1.9c0,1,0.7,1.9,1.8,1.9
	C44.4,37.7,45.1,36.9,45.1,35.9z"/>
</svg>
