<?xml version="1.0" encoding="utf-8"?>
<!-- Generator: Adobe Illustrator 21.1.0, SVG Export Plug-In . SVG Version: 6.00 Build 0)  -->
<svg version="1.1" id="Layer_1" xmlns="http://www.w3.org/2000/svg" xmlns:xlink="http://www.w3.org/1999/xlink" x="0px" y="0px"
	 width="26px" height="26px" viewBox="0 0 26 26" style="enable-background:new 0 0 26 26;" xml:space="preserve">
<path style="fill-rule:evenodd;clip-rule:evenodd;fill:#010101;" d="M14,21h-3.4V10.2H14v1.5c0.2-0.3,0.4-0.6,0.7-0.8
	c0.7-0.7,1.6-0.9,2.5-0.9c0.7,0,1.4,0.2,2,0.6c0.8,0.5,1.3,1.3,1.6,2.3c0.2,0.6,0.2,1.3,0.2,2c0,2,0,4,0,6.1c0,0.1,0,0.1,0,0.2h-3.4
	v-0.3c0-1.8,0-3.7,0-5.5c0-0.4-0.1-0.8-0.1-1.1c-0.2-0.7-0.5-1.2-1.2-1.3c-0.7-0.1-1.3,0-1.8,0.6c-0.4,0.4-0.5,0.9-0.5,1.5
	c0,1.9,0,3.9,0,5.8V21z M8.6,10.2H5.2V21h3.4V10.2z M7,8.7c0.1,0,0.2,0,0.3,0C8,8.6,8.7,8,8.8,7.2c0.1-0.9-0.3-1.7-1.1-2
	C7.3,5,6.9,5,6.5,5C5.3,5.3,4.6,6.6,5.2,7.8C5.6,8.5,6.2,8.7,7,8.7"/>
</svg>
