<?xml version="1.0" encoding="utf-8"?>
<!-- Generator: Adobe Illustrator 21.1.0, SVG Export Plug-In . SVG Version: 6.00 Build 0)  -->
<svg version="1.1" id="Layer_1" xmlns="http://www.w3.org/2000/svg" xmlns:xlink="http://www.w3.org/1999/xlink" x="0px" y="0px"
	 width="26px" height="26px" viewBox="0 0 26 26" style="enable-background:new 0 0 26 26;" xml:space="preserve">
<g>
	<g>
		<g id="spin_2_">
			<g>
				<path d="M18.6,18.6L17,17c-1.1,1.1-2.5,1.7-4,1.7c-3.1,0-5.6-2.5-5.6-5.6H9L6.2,9.8L3.5,13h1.6c0,4.3,3.5,7.9,7.9,7.9
					C15.1,20.9,17.1,20.1,18.6,18.6z"/>
				<path d="M19.8,16.2l2.8-3.2h-1.6c0-4.3-3.5-7.9-7.9-7.9c-2.1,0-4.1,0.8-5.6,2.3L9,9c1.1-1.1,2.5-1.7,4-1.7
					c3.1,0,5.6,2.5,5.6,5.6H17L19.8,16.2z"/>
			</g>
		</g>
	</g>
</g>
</svg>
