<?xml version="1.0" encoding="utf-8"?>
<!-- Generator: Adobe Illustrator 21.1.0, SVG Export Plug-In . SVG Version: 6.00 Build 0)  -->
<svg version="1.1" id="Layer_1" xmlns="http://www.w3.org/2000/svg" xmlns:xlink="http://www.w3.org/1999/xlink" x="0px" y="0px"
	 width="26px" height="26px" viewBox="0 0 26 26" style="enable-background:new 0 0 26 26;" xml:space="preserve">
<path d="M14.5,13c0,0.8-0.7,1.5-1.5,1.5s-1.5-0.7-1.5-1.5s0.7-1.5,1.5-1.5S14.5,12.2,14.5,13z M13,18.5c-0.8,0-1.5,0.7-1.5,1.5
	s0.7,1.5,1.5,1.5s1.5-0.7,1.5-1.5S13.8,18.5,13,18.5z M13,4.5c-0.8,0-1.5,0.7-1.5,1.5s0.7,1.5,1.5,1.5s1.5-0.7,1.5-1.5
	S13.8,4.5,13,4.5z"/>
</svg>
