<?xml version="1.0" encoding="utf-8"?>
<!-- Generator: Adobe Illustrator 21.1.0, SVG Export Plug-In . SVG Version: 6.00 Build 0)  -->
<svg version="1.1" id="Layer_1" xmlns="http://www.w3.org/2000/svg" xmlns:xlink="http://www.w3.org/1999/xlink" x="0px" y="0px"
	 width="26px" height="26px" viewBox="0 0 26 26" style="enable-background:new 0 0 26 26;" xml:space="preserve">
<path style="fill-rule:evenodd;clip-rule:evenodd;" d="M3.5,19.1c2.1,0.2,3.9-0.3,5.6-1.5c-1.7-0.1-2.9-1-3.5-2.5h1.6c0,0,0,0,0-0.1
	c-1.8-0.5-2.8-1.7-3-3.6c0.6,0.3,1.1,0.4,1.7,0.4c-1.7-1.3-2-2.9-1.1-4.9c2.1,2.3,4.7,3.6,7.8,3.8c0-0.5,0-0.9,0-1.4
	c0.2-1.5,1.6-2.9,3.1-3c1.2-0.1,2.3,0.1,3.2,1c0.1,0.1,0.2,0.1,0.3,0.1c0.7-0.1,1.3-0.4,1.9-0.7c0.1,0,0.1-0.1,0.3-0.1
	c-0.3,0.9-0.8,1.5-1.5,2c0.2,0,0.4-0.1,0.7-0.1c0.2,0,0.4-0.1,0.7-0.2c0.2-0.1,0.4-0.1,0.7-0.2c-0.3,0.3-0.6,0.7-0.9,1
	c-0.2,0.2-0.5,0.4-0.7,0.6c-0.2,0.1-0.2,0.3-0.2,0.5c0,1.4-0.2,2.8-0.8,4.2c-0.9,2-2.3,3.7-4.2,4.9c-1.5,0.9-3,1.3-4.8,1.5
	c-1.6,0.1-3.1-0.1-4.5-0.6C4.9,19.9,4.2,19.5,3.5,19.1"/>
</svg>
